<svg xmlns="http://www.w3.org/2000/svg" viewBox="0 0 96 260">
  <g fill="#ead9b8" stroke="#ead9b8" stroke-linecap="round" stroke-linejoin="round">
    <path d="M79 242C36 211 18 165 22 120C25 78 43 39 72 14" fill="none" stroke-width="2.4"/>
    <ellipse cx="69" cy="25" rx="5" ry="14" transform="rotate(38 69 25)"/>
    <ellipse cx="54" cy="36" rx="5" ry="14" transform="rotate(-42 54 36)"/>
    <ellipse cx="55" cy="50" rx="5.4" ry="15" transform="rotate(32 55 50)"/>
    <ellipse cx="40" cy="57" rx="5.2" ry="14" transform="rotate(-51 40 57)"/>
    <ellipse cx="43" cy="76" rx="5.4" ry="15" transform="rotate(25 43 76)"/>
    <ellipse cx="29" cy="80" rx="5.2" ry="14" transform="rotate(-60 29 80)"/>
    <ellipse cx="34" cy="102" rx="5.4" ry="15" transform="rotate(16 34 102)"/>
    <ellipse cx="20" cy="103" rx="5.2" ry="14" transform="rotate(-70 20 103)"/>
    <ellipse cx="31" cy="128" rx="5.4" ry="15" transform="rotate(7 31 128)"/>
    <ellipse cx="17" cy="126" rx="5.2" ry="14" transform="rotate(-80 17 126)"/>
    <ellipse cx="32" cy="154" rx="5.4" ry="15" transform="rotate(-7 32 154)"/>
    <ellipse cx="18" cy="149" rx="5.2" ry="14" transform="rotate(-92 18 149)"/>
    <ellipse cx="39" cy="180" rx="5.4" ry="15" transform="rotate(-20 39 180)"/>
    <ellipse cx="25" cy="172" rx="5.2" ry="14" transform="rotate(-105 25 172)"/>
    <ellipse cx="51" cy="204" rx="5.4" ry="15" transform="rotate(-32 51 204)"/>
    <ellipse cx="38" cy="194" rx="5.2" ry="14" transform="rotate(-118 38 194)"/>
    <ellipse cx="68" cy="226" rx="5.4" ry="15" transform="rotate(-43 68 226)"/>
    <ellipse cx="55" cy="214" rx="5.2" ry="14" transform="rotate(-128 55 214)"/>
  </g>
</svg>
